<svg width="820" height="545" viewBox="0 0 820 545" fill="none" xmlns="http://www.w3.org/2000/svg">
<g clip-path="url(#clip0_705_262)">
<path d="M186.947 320.839L191.203 324.264C191.203 324.264 206.931 299.495 218.682 285.118C221.732 281.394 225.174 278.169 228.893 275.415C239.319 267.667 260.725 253.735 270.126 249.66C270.126 249.66 286.967 243.02 306.9 243.888C307.298 243.906 307.38 243.248 307.008 243.173C292.959 240.54 258.424 234.85 230.527 236.599C230.527 236.599 201.576 239.337 190.905 244.159C190.905 244.159 206.05 259.152 203.975 275.247C201.924 291.303 186.947 320.839 186.947 320.839Z" fill="#B42025" stroke="#B42025" stroke-miterlimit="10"/>
<path d="M338.836 278.445C339.188 278.317 339.375 278.879 339.039 279.049C315.603 289.907 240.939 324.571 234.03 328.295C234.03 328.295 208.86 341.429 206.312 351.935C206.312 351.935 205.141 346.321 196.287 345.85L193.92 331.697L338.836 278.445Z" fill="#B42025" stroke="#B42025" stroke-miterlimit="10"/>
<path d="M488.427 175.293L512.342 177.403C512.342 177.403 528.146 154.376 549.751 147.035L602.119 121.744L487.078 161.155L488.427 175.293Z" fill="#B42025" stroke="#B42025" stroke-miterlimit="10"/>
<path d="M486.515 155.92C486.515 155.92 511.534 120.172 530.246 102.358C530.246 102.358 549.564 85.1246 585.41 70.0923C585.41 70.0923 608.649 58.7723 644.029 71.6383C645.267 72.0774 646.037 70.0532 644.901 69.3818C632.49 62.3066 610.08 52.496 579.626 51.2423C535.926 49.4475 511.456 51.5392 487.86 57.08C486.062 57.4953 485.706 60.4254 487.39 61.229C494.586 64.6481 504.984 72.9249 506.663 92.4771C506.663 92.4771 508.532 120.837 483.236 154.644L486.515 155.92Z" fill="#B42025" stroke="#B42025" stroke-miterlimit="10"/>
<path d="M457.093 203.169L366.345 250.028C366.304 250.044 366.264 250.04 366.243 250.058L360.178 249.488C359.9 249.461 360.127 248.757 360.127 248.757L458.182 187.567C458.437 187.409 458.661 187.793 458.49 188.12C457.968 189.2 457.332 191.075 457.05 194.073C457.017 194.211 457.178 203.117 457.093 203.169Z" fill="#B42025" stroke="#B42025" stroke-miterlimit="10"/>
<path d="M470.253 166.789C466.791 166.826 446.881 166.565 441.445 157.183L313.706 199.169C312.674 199.515 312.946 201.295 314.003 201.112L469.91 175.748C470.377 175.671 470.751 175.102 470.751 174.457L470.766 167.503C470.764 167.099 470.535 166.775 470.253 166.789Z" fill="#B42025" stroke="#B42025" stroke-miterlimit="10"/>
<path d="M658.607 251.732C658.607 251.732 625.616 214.757 681.292 187.882C681.962 187.562 681.73 186.412 681.014 186.586C660.618 191.702 599.889 207.9 566.053 227.073C565.503 227.384 565.774 228.337 566.369 228.172C582.041 223.538 632.279 212.582 653.333 254.017L658.607 251.732Z" fill="#B42025" stroke="#B42025" stroke-miterlimit="10"/>
<path d="M645.649 279.362C645.649 279.362 521.711 277.353 509.876 287.952C509.876 287.952 497.799 279.457 507.461 273.673C507.461 273.673 525.922 281.257 582.901 273.456C639.881 265.654 651.278 261.405 651.278 261.405L651.055 272.694C651.073 272.716 646.265 273.876 645.649 279.362Z" fill="#B42025" stroke="#B42025" stroke-miterlimit="10"/>
<path d="M674.637 272.615C676.174 276.469 679.582 278.705 683.238 278.102C706.434 274.257 781.084 262.051 792.267 262.62C805.541 263.285 716.451 263.85 709.435 260.851C702.477 257.878 811.494 192.175 806.919 193.841C788.058 200.694 709.873 244.099 707.001 243.385C707.001 243.385 668.302 260.044 665.782 255.17C663.891 251.464 671.16 263.881 674.637 272.615Z" fill="#B42025" stroke="#B42025" stroke-miterlimit="10"/>
<path fill-rule="evenodd" clip-rule="evenodd" d="M170.829 343.998C171.009 346.757 170.429 349.726 168.758 351.766C165.483 355.752 166.42 367.473 167.444 375.069C167.975 378.99 166.568 382.889 163.905 385.481C159.613 389.654 158.381 395.304 160.244 409.712C161.929 422.612 174.843 424.977 182.679 425.21C185.691 425.292 188.7 424.547 191.553 422.921C210.387 412.093 276.431 412.504 284.7 412.596C285.298 412.613 285.866 412.525 286.458 412.399C329.164 402.448 344.636 415.234 348.609 419.761C349.314 420.553 349.844 421.51 350.267 422.538L372.746 477.716C373.783 480.293 375.68 482.226 377.997 483.109L456.107 512.94C457.961 513.638 459.982 513.627 461.87 512.898L502.089 497.289C502.144 497.265 502.198 497.242 502.251 497.22C502.419 497.148 502.581 497.08 502.757 496.989C505.567 495.6 525.033 485.498 524.381 473.522C524.124 469.022 524.552 464.909 525.196 461.462C526.122 456.509 529.863 452.446 534.178 452.489C546.164 452.609 548.195 428.689 543.611 396.888C538.373 360.55 606.475 363.311 606.475 363.311C618.679 364.26 622.271 361.41 627.335 357.392C629.404 355.751 631.719 353.914 634.967 352.062C646.165 345.677 653.517 349.353 653.517 349.353C670.053 352.542 675.735 348.461 680.414 344.849C706.444 324.699 693.197 305.913 687.258 299.548C685.75 297.934 684.796 295.747 684.54 293.365C683.088 280.325 680.125 275.914 677.752 274.561C675.192 273.091 673.583 269.996 672.994 266.695C672.067 261.466 670.821 257.498 669.486 254.47C665.111 244.663 651.921 248.623 652.047 259.824C652.056 260.571 652.114 261.02 652.114 261.02C650.497 281.615 648.224 282.66 646.387 283.505C645.709 283.816 645.091 284.1 644.587 285.33C643.708 287.445 643.696 291.617 643.913 295.468C644.232 301.002 640.905 305.97 636.222 307.082C627.488 309.163 610.825 310.941 580.835 307.735C541.997 303.575 507.863 295.101 493.105 291.091C488.445 289.826 485.481 284.567 486.365 279.005C487.773 269.985 491.182 257.565 499.208 254.288C512.226 248.961 512.101 234.999 512.101 234.999C514.785 211.583 499.674 208.125 499.674 208.125C499.674 208.125 498.874 216.839 499.339 196.602C499.619 184.29 495.492 179.063 492.22 176.86C489.775 175.219 488.237 172.231 488.01 168.904C487.207 156.833 484.941 144.584 473.644 147.553C464.275 150.017 463.815 164.671 464.38 173.111C464.581 176.295 463.588 179.407 461.63 181.722C455.22 189.284 455.375 207.604 455.788 215.747C455.907 218.097 455.364 220.465 454.181 222.41C449.348 230.423 449.68 240.917 450.486 247.222C450.948 250.814 449.804 254.476 447.449 256.976L433.411 271.864C432.81 272.513 432.322 273.233 431.869 274.017C423.776 287.771 387.563 310.53 387.563 310.53C389.802 315.013 281.816 351.076 234.874 366.753C222.223 370.978 214.006 373.722 213.576 373.968C211.547 375.128 204.77 370.438 206.508 357.074C207.454 349.784 204.282 346.945 201.186 345.848C198.011 344.742 195.814 341.532 195.195 337.703C193.608 327.796 189.819 317.279 179.681 320.054C170.856 322.469 170.318 335.825 170.829 343.998ZM492.062 232.709C480.266 232.063 457.307 233.389 458.253 241.18C459.055 247.747 459.723 264.019 445.304 284.011C430.791 304.156 423.491 330.947 423.491 330.947L442.856 415.387C442.856 415.387 503.871 447.338 522.145 444.381C540.418 441.424 537.049 420.503 537.049 420.503C537.049 420.503 522.815 383.097 544.438 366.645C551.331 361.387 584.598 351.878 607.661 355.601C616.906 357.094 624.151 352.594 633.995 346.478C634.972 345.871 635.975 345.248 637.008 344.614C647.994 337.875 651.989 339.591 656.23 341.412C660.009 343.034 663.984 344.741 673.273 340.628C682.357 336.616 683.012 333.857 683.793 330.565C683.818 330.462 683.842 330.359 683.867 330.255C684.682 326.905 677.09 322.38 674.613 322.993L630.569 333.786C630.569 333.786 529.649 348.298 503.857 338.512C503.568 338.402 503.282 338.294 503 338.187C492.288 334.124 487.018 332.125 479.413 322.059C471.715 311.859 469.5 296.732 471.3 287.587C472.541 281.264 473.083 276.038 473.527 271.76C474.527 262.122 475.027 257.295 481.891 255.581C492.108 253.035 518.896 234.187 492.062 232.709Z" fill="#B42025"/>
<path d="M168.758 351.766L169.144 352.084L169.145 352.083L168.758 351.766ZM170.829 343.998L170.33 344.029L170.33 344.031L170.829 343.998ZM167.444 375.069L166.949 375.136L166.949 375.136L167.444 375.069ZM163.905 385.481L164.253 385.84L164.253 385.84L163.905 385.481ZM160.244 409.712L159.749 409.776L159.749 409.777L160.244 409.712ZM182.679 425.21L182.664 425.71L182.666 425.71L182.679 425.21ZM191.553 422.921L191.8 423.355L191.802 423.354L191.553 422.921ZM284.7 412.596L284.713 412.097L284.706 412.097L284.7 412.596ZM286.458 412.399L286.562 412.888L286.572 412.886L286.458 412.399ZM348.609 419.761L348.233 420.091L348.235 420.094L348.609 419.761ZM350.267 422.538L350.73 422.349L350.729 422.348L350.267 422.538ZM372.746 477.716L373.21 477.529L373.209 477.527L372.746 477.716ZM377.997 483.109L378.175 482.642L378.175 482.642L377.997 483.109ZM456.107 512.94L455.929 513.407L455.931 513.408L456.107 512.94ZM461.87 512.898L462.05 513.364L462.051 513.364L461.87 512.898ZM502.089 497.289L502.27 497.755L502.279 497.752L502.288 497.748L502.089 497.289ZM502.251 497.22L502.446 497.68L502.447 497.68L502.251 497.22ZM502.757 496.989L502.535 496.541L502.527 496.545L502.757 496.989ZM524.381 473.522L524.88 473.494L524.88 473.493L524.381 473.522ZM525.196 461.462L524.704 461.37L524.704 461.37L525.196 461.462ZM534.178 452.489L534.173 452.989L534.178 452.489ZM543.611 396.888L543.116 396.959L543.116 396.959L543.611 396.888ZM606.475 363.311L606.514 362.813L606.505 362.812L606.496 362.812L606.475 363.311ZM627.335 357.392L627.646 357.784L627.335 357.392ZM634.967 352.062L635.215 352.497L634.967 352.062ZM653.517 349.353L653.294 349.8L653.355 349.831L653.422 349.844L653.517 349.353ZM680.414 344.849L680.72 345.245L680.72 345.244L680.414 344.849ZM687.258 299.548L687.623 299.206L687.623 299.206L687.258 299.548ZM684.54 293.365L685.038 293.311L685.037 293.309L684.54 293.365ZM677.752 274.561L677.503 274.995L677.505 274.996L677.752 274.561ZM672.994 266.695L672.502 266.782L672.502 266.782L672.994 266.695ZM669.486 254.47L669.944 254.268L669.943 254.266L669.486 254.47ZM652.047 259.824L651.547 259.829L651.547 259.83L652.047 259.824ZM652.114 261.02L652.613 261.059L652.617 261.007L652.61 260.956L652.114 261.02ZM646.387 283.505L646.596 283.959L646.387 283.505ZM644.587 285.33L645.049 285.522L645.05 285.52L644.587 285.33ZM643.913 295.468L643.414 295.496L643.414 295.496L643.913 295.468ZM636.222 307.082L636.106 306.595L636.106 306.595L636.222 307.082ZM580.835 307.735L580.781 308.232L580.782 308.232L580.835 307.735ZM493.105 291.091L493.236 290.608L493.236 290.608L493.105 291.091ZM486.365 279.005L486.858 279.084L486.859 279.083L486.365 279.005ZM499.208 254.288L499.397 254.751L499.398 254.751L499.208 254.288ZM512.101 234.999L511.604 234.942L511.601 234.972L511.601 235.003L512.101 234.999ZM499.674 208.125L499.786 207.637L499.229 207.51L499.177 208.079L499.674 208.125ZM499.339 196.602L499.839 196.613L499.839 196.613L499.339 196.602ZM492.22 176.86L492.499 176.445L492.499 176.445L492.22 176.86ZM488.01 168.904L487.511 168.937L487.511 168.938L488.01 168.904ZM473.644 147.553L473.517 147.069L473.517 147.069L473.644 147.553ZM464.38 173.111L464.879 173.079L464.879 173.077L464.38 173.111ZM461.63 181.722L462.012 182.046L462.012 182.045L461.63 181.722ZM455.788 215.747L456.288 215.722L456.288 215.722L455.788 215.747ZM454.181 222.41L453.754 222.15L453.753 222.152L454.181 222.41ZM450.486 247.222L449.99 247.286L449.99 247.286L450.486 247.222ZM447.449 256.976L447.813 257.319L447.813 257.319L447.449 256.976ZM433.411 271.864L433.047 271.521L433.044 271.524L433.411 271.864ZM431.869 274.017L432.3 274.271L432.301 274.268L431.869 274.017ZM387.563 310.53L387.296 310.107L386.913 310.348L387.115 310.754L387.563 310.53ZM234.874 366.753L235.033 367.227L234.874 366.753ZM213.576 373.968L213.824 374.402L213.824 374.402L213.576 373.968ZM206.508 357.074L207.004 357.138L207.004 357.138L206.508 357.074ZM201.186 345.848L201.354 345.376L201.351 345.375L201.186 345.848ZM195.195 337.703L194.701 337.782L194.701 337.783L195.195 337.703ZM179.681 320.054L179.813 320.537L179.813 320.537L179.681 320.054ZM458.253 241.18L457.757 241.24L457.757 241.24L458.253 241.18ZM492.062 232.709L492.089 232.21L492.089 232.21L492.062 232.709ZM445.304 284.011L444.898 283.719L444.898 283.719L445.304 284.011ZM423.491 330.947L423.008 330.816L422.975 330.937L423.003 331.059L423.491 330.947ZM442.856 415.387L442.368 415.499L442.42 415.723L442.624 415.83L442.856 415.387ZM522.145 444.381L522.225 444.875L522.145 444.381ZM537.049 420.503L537.543 420.424L537.535 420.373L537.516 420.325L537.049 420.503ZM544.438 366.645L544.741 367.043L544.741 367.042L544.438 366.645ZM607.661 355.601L607.741 355.107L607.741 355.107L607.661 355.601ZM633.995 346.478L633.731 346.053L633.995 346.478ZM637.008 344.614L636.746 344.187L636.746 344.188L637.008 344.614ZM656.23 341.412L656.427 340.952L656.23 341.412ZM673.273 340.628L673.071 340.171L673.071 340.171L673.273 340.628ZM683.793 330.565L683.307 330.45L683.307 330.45L683.793 330.565ZM683.867 330.255L683.381 330.137L683.381 330.139L683.867 330.255ZM674.613 322.993L674.732 323.479L674.734 323.479L674.613 322.993ZM630.569 333.786L630.64 334.281L630.664 334.278L630.688 334.272L630.569 333.786ZM503.857 338.512L503.68 338.979L503.68 338.979L503.857 338.512ZM503 338.187L502.823 338.654L502.823 338.654L503 338.187ZM479.413 322.059L479.014 322.36L479.014 322.36L479.413 322.059ZM471.3 287.587L471.791 287.684L471.791 287.683L471.3 287.587ZM473.527 271.76L473.03 271.709L473.527 271.76ZM481.891 255.581L481.77 255.096L481.77 255.096L481.891 255.581ZM169.145 352.083C170.925 349.91 171.513 346.797 171.328 343.966L170.33 344.031C170.505 346.716 169.934 349.542 168.371 351.45L169.145 352.083ZM167.94 375.002C167.429 371.214 166.942 366.412 166.989 362.069C167.012 359.898 167.169 357.855 167.517 356.119C167.867 354.373 168.402 352.988 169.144 352.084L168.371 351.449C167.477 352.538 166.9 354.112 166.537 355.923C166.172 357.742 166.013 359.852 165.989 362.059C165.941 366.472 166.435 371.328 166.949 375.136L167.94 375.002ZM164.253 385.84C167.03 383.138 168.492 379.08 167.94 375.002L166.949 375.136C167.458 378.899 166.106 382.641 163.556 385.123L164.253 385.84ZM160.74 409.648C159.81 402.455 159.661 397.5 160.26 393.839C160.855 390.206 162.187 387.849 164.253 385.84L163.556 385.123C161.331 387.287 159.901 389.841 159.273 393.677C158.65 397.487 158.816 402.56 159.749 409.776L160.74 409.648ZM182.694 424.711C178.806 424.595 173.704 423.95 169.381 421.765C165.082 419.593 161.558 415.905 160.74 409.647L159.749 409.777C160.616 416.42 164.391 420.364 168.93 422.657C173.444 424.938 178.716 425.592 182.664 425.71L182.694 424.711ZM191.305 422.486C188.529 424.069 185.61 424.79 182.693 424.711L182.666 425.71C185.772 425.795 188.871 425.025 191.8 423.355L191.305 422.486ZM284.706 412.097C280.567 412.05 261.974 411.924 242.057 413.164C232.099 413.785 221.801 414.747 212.808 416.233C203.833 417.717 196.096 419.732 191.303 422.487L191.802 423.354C196.426 420.696 204.008 418.702 212.971 417.22C221.917 415.741 232.178 414.782 242.119 414.163C262 412.924 280.564 413.05 284.694 413.096L284.706 412.097ZM286.354 411.91C285.778 412.032 285.254 412.111 284.713 412.097L284.687 413.096C285.342 413.114 285.955 413.017 286.562 412.888L286.354 411.91ZM348.984 419.431C344.862 414.734 329.185 401.929 286.345 411.912L286.572 412.886C329.143 402.966 344.409 415.734 348.233 420.091L348.984 419.431ZM350.729 422.348C350.293 421.288 349.737 420.276 348.982 419.429L348.235 420.094C348.891 420.83 349.395 421.733 349.804 422.728L350.729 422.348ZM373.209 477.527L350.73 422.349L349.804 422.727L372.283 477.904L373.209 477.527ZM378.175 482.642C376.003 481.813 374.201 479.992 373.21 477.529L372.282 477.902C373.365 480.594 375.358 482.638 377.818 483.576L378.175 482.642ZM456.286 512.473L378.175 482.642L377.818 483.576L455.929 513.407L456.286 512.473ZM461.69 512.431C459.914 513.117 458.021 513.127 456.284 512.472L455.931 513.408C457.902 514.15 460.049 514.137 462.05 513.364L461.69 512.431ZM501.908 496.823L461.689 512.431L462.051 513.364L502.27 497.755L501.908 496.823ZM502.056 496.759C502.003 496.782 501.947 496.805 501.89 496.83L502.288 497.748C502.341 497.725 502.393 497.703 502.446 497.68L502.056 496.759ZM502.527 496.545C502.371 496.625 502.226 496.687 502.056 496.759L502.447 497.68C502.613 497.609 502.792 497.534 502.986 497.433L502.527 496.545ZM523.881 473.549C524.037 476.4 522.997 479.17 521.257 481.767C519.517 484.365 517.097 486.758 514.551 488.838C509.457 493 503.927 495.853 502.535 496.541L502.978 497.437C504.397 496.736 510.004 493.844 515.184 489.613C517.773 487.497 520.273 485.033 522.088 482.324C523.902 479.615 525.051 476.632 524.88 473.494L523.881 473.549ZM524.704 461.37C524.054 464.848 523.623 469.002 523.882 473.55L524.88 473.493C524.626 469.042 525.049 464.97 525.687 461.554L524.704 461.37ZM534.183 451.989C529.537 451.943 525.656 456.278 524.704 461.37L525.687 461.554C526.588 456.74 530.19 452.949 534.173 452.989L534.183 451.989ZM543.116 396.959C545.406 412.843 546.036 426.718 544.613 436.588C543.901 441.527 542.682 445.415 540.936 448.048C539.206 450.659 536.977 452.017 534.183 451.989L534.173 452.989C537.372 453.021 539.892 451.434 541.77 448.601C543.633 445.789 544.882 441.732 545.603 436.73C547.046 426.72 546.4 412.734 544.106 396.817L543.116 396.959ZM606.475 363.311C606.496 362.812 606.495 362.812 606.495 362.812C606.494 362.812 606.493 362.812 606.492 362.812C606.49 362.811 606.487 362.811 606.482 362.811C606.474 362.811 606.461 362.81 606.444 362.81C606.411 362.809 606.361 362.807 606.296 362.805C606.166 362.801 605.974 362.795 605.723 362.789C605.223 362.778 604.49 362.766 603.561 362.764C601.702 362.759 599.053 362.793 595.892 362.948C589.572 363.258 581.19 364.051 572.965 365.986C564.748 367.919 556.635 371.004 550.898 375.932C545.133 380.884 541.78 387.69 543.116 396.959L544.106 396.817C542.823 387.917 546.019 381.442 551.55 376.691C557.108 371.916 565.039 368.878 573.194 366.96C581.339 365.043 589.655 364.255 595.941 363.947C599.082 363.793 601.713 363.759 603.558 363.764C604.48 363.766 605.206 363.778 605.7 363.789C605.948 363.795 606.137 363.8 606.264 363.804C606.328 363.806 606.376 363.808 606.408 363.809C606.424 363.81 606.436 363.81 606.444 363.81C606.448 363.811 606.451 363.811 606.453 363.811C606.454 363.811 606.454 363.811 606.455 363.811C606.455 363.811 606.455 363.811 606.475 363.311ZM627.025 357C624.486 359.014 622.382 360.679 619.414 361.743C616.448 362.807 612.577 363.284 606.514 362.813L606.437 363.81C612.578 364.287 616.605 363.813 619.752 362.685C622.896 361.557 625.12 359.788 627.646 357.784L627.025 357ZM634.719 351.628C631.435 353.5 629.095 355.358 627.025 357L627.646 357.784C629.714 356.143 632.003 354.328 635.215 352.497L634.719 351.628ZM653.517 349.353C653.741 348.906 653.74 348.906 653.74 348.905C653.74 348.905 653.74 348.905 653.739 348.905C653.739 348.905 653.738 348.904 653.737 348.904C653.736 348.903 653.733 348.902 653.731 348.901C653.726 348.898 653.719 348.895 653.71 348.891C653.693 348.883 653.668 348.871 653.636 348.857C653.573 348.829 653.482 348.789 653.363 348.742C653.126 348.649 652.779 348.525 652.33 348.397C651.431 348.143 650.123 347.876 648.46 347.814C645.13 347.689 640.4 348.389 634.719 351.628L635.215 352.497C640.732 349.35 645.278 348.695 648.423 348.813C649.998 348.872 651.227 349.124 652.057 349.359C652.472 349.477 652.787 349.59 652.996 349.673C653.1 349.714 653.177 349.747 653.227 349.769C653.252 349.781 653.27 349.789 653.281 349.794C653.287 349.797 653.291 349.799 653.293 349.8C653.294 349.8 653.294 349.801 653.295 349.801C653.295 349.801 653.295 349.801 653.294 349.801C653.294 349.801 653.294 349.8 653.294 349.8C653.294 349.8 653.294 349.8 653.517 349.353ZM680.109 344.453C677.779 346.251 675.255 348.121 671.284 349.168C667.307 350.216 661.833 350.448 653.612 348.862L653.422 349.844C661.737 351.448 667.372 351.233 671.539 350.135C675.714 349.035 678.37 347.058 680.72 345.245L680.109 344.453ZM686.892 299.889C689.834 303.042 694.542 309.23 695.327 317.079C696.106 324.879 693.021 334.458 680.108 344.453L680.72 345.244C693.838 335.09 697.143 325.2 696.322 316.979C695.505 308.806 690.62 302.419 687.623 299.206L686.892 299.889ZM684.043 293.418C684.309 295.897 685.303 298.188 686.892 299.889L687.623 299.206C686.197 297.68 685.283 295.598 685.038 293.311L684.043 293.418ZM677.505 274.996C678.562 275.598 679.837 276.932 681.03 279.774C682.224 282.615 683.32 286.926 684.043 293.42L685.037 293.309C684.308 286.764 683.197 282.349 681.952 279.387C680.708 276.425 679.315 274.877 678 274.127L677.505 274.996ZM672.502 266.782C673.105 270.16 674.764 273.422 677.503 274.995L678.002 274.128C675.619 272.759 674.062 269.831 673.487 266.607L672.502 266.782ZM669.029 254.671C670.345 257.658 671.58 261.586 672.502 266.782L673.487 266.607C672.553 261.346 671.297 257.339 669.944 254.268L669.029 254.671ZM652.547 259.818C652.486 254.432 655.616 250.845 659.224 249.747C662.816 248.655 666.946 250.004 669.03 254.673L669.943 254.266C667.651 249.128 662.999 247.554 658.933 248.791C654.884 250.022 651.482 254.015 651.547 259.829L652.547 259.818ZM652.114 261.02C652.61 260.956 652.61 260.956 652.61 260.956C652.61 260.956 652.61 260.956 652.61 260.956C652.61 260.956 652.61 260.956 652.61 260.956C652.61 260.956 652.61 260.956 652.61 260.956C652.61 260.956 652.61 260.956 652.61 260.956C652.61 260.956 652.61 260.955 652.61 260.954C652.61 260.951 652.609 260.947 652.608 260.941C652.607 260.929 652.605 260.911 652.602 260.886C652.597 260.837 652.59 260.762 652.583 260.664C652.568 260.468 652.551 260.179 652.547 259.817L651.547 259.83C651.552 260.215 651.569 260.525 651.586 260.74C651.594 260.847 651.602 260.931 651.608 260.989C651.611 261.018 651.613 261.041 651.615 261.057C651.616 261.065 651.617 261.071 651.617 261.075C651.618 261.077 651.618 261.079 651.618 261.081C651.618 261.081 651.618 261.082 651.618 261.082C651.618 261.083 651.618 261.083 651.618 261.083C651.618 261.083 651.618 261.083 651.618 261.083C651.618 261.083 651.618 261.083 651.618 261.083C651.618 261.083 651.618 261.083 652.114 261.02ZM646.596 283.959C647.062 283.745 647.628 283.487 648.197 282.87C648.758 282.262 649.294 281.338 649.806 279.83C650.828 276.824 651.804 271.36 652.613 261.059L651.616 260.981C650.807 271.275 649.838 276.631 648.86 279.508C648.372 280.941 647.894 281.724 647.462 282.192C647.037 282.653 646.631 282.842 646.178 283.05L646.596 283.959ZM645.05 285.52C645.279 284.962 645.518 284.653 645.751 284.45C645.991 284.24 646.251 284.118 646.596 283.959L646.178 283.05C645.846 283.203 645.458 283.378 645.093 283.696C644.721 284.021 644.4 284.469 644.125 285.141L645.05 285.52ZM644.412 295.44C644.304 293.523 644.254 291.536 644.339 289.772C644.424 287.993 644.645 286.495 645.049 285.522L644.126 285.138C643.651 286.28 643.426 287.925 643.34 289.724C643.253 291.537 643.305 293.562 643.414 295.496L644.412 295.44ZM636.337 307.568C641.3 306.39 644.742 301.167 644.412 295.439L643.414 295.496C643.722 300.836 640.51 305.55 636.106 306.595L636.337 307.568ZM580.782 308.232C610.806 311.442 627.531 309.667 636.337 307.568L636.106 306.595C627.445 308.659 610.843 310.44 580.888 307.238L580.782 308.232ZM492.974 291.573C507.746 295.587 541.907 304.069 580.781 308.232L580.888 307.238C542.086 303.082 507.981 294.615 493.236 290.608L492.974 291.573ZM485.871 278.927C484.957 284.682 488.015 290.227 492.974 291.573L493.236 290.608C488.876 289.425 486.006 284.452 486.858 279.084L485.871 278.927ZM499.019 253.825C494.826 255.537 491.897 259.608 489.847 264.292C487.791 268.991 486.578 274.398 485.871 278.928L486.859 279.083C487.56 274.592 488.756 269.28 490.763 264.693C492.776 260.093 495.565 256.316 499.397 254.751L499.019 253.825ZM512.101 234.999C511.601 235.003 511.601 235.003 511.601 235.003C511.601 235.003 511.601 235.003 511.601 235.003C511.601 235.003 511.601 235.003 511.601 235.004C511.601 235.005 511.601 235.007 511.601 235.01C511.601 235.015 511.601 235.024 511.601 235.036C511.601 235.06 511.6 235.097 511.599 235.146C511.597 235.244 511.592 235.391 511.582 235.581C511.56 235.961 511.516 236.514 511.422 237.195C511.234 238.559 510.851 240.432 510.07 242.467C508.509 246.531 505.368 251.227 499.019 253.825L499.398 254.751C506.066 252.022 509.372 247.074 511.003 242.825C511.818 240.703 512.217 238.753 512.413 237.332C512.51 236.621 512.557 236.041 512.58 235.637C512.591 235.435 512.597 235.277 512.599 235.168C512.6 235.113 512.601 235.071 512.601 235.042C512.601 235.027 512.601 235.016 512.601 235.008C512.601 235.004 512.601 235.001 512.601 234.999C512.601 234.997 512.601 234.997 512.601 234.996C512.601 234.995 512.601 234.995 512.601 234.995C512.601 234.995 512.601 234.994 512.101 234.999ZM499.674 208.125C499.563 208.612 499.563 208.612 499.562 208.612C499.562 208.612 499.562 208.612 499.562 208.612C499.562 208.612 499.562 208.612 499.563 208.612C499.564 208.612 499.565 208.613 499.568 208.613C499.573 208.615 499.582 208.617 499.594 208.62C499.619 208.626 499.657 208.636 499.708 208.65C499.809 208.679 499.961 208.725 500.156 208.792C500.545 208.926 501.104 209.144 501.769 209.478C503.1 210.146 504.852 211.275 506.524 213.117C509.854 216.785 512.933 223.353 511.604 234.942L512.598 235.056C513.953 223.229 510.818 216.36 507.264 212.445C505.495 210.495 503.637 209.296 502.218 208.584C501.508 208.228 500.908 207.993 500.481 207.846C500.268 207.773 500.098 207.722 499.979 207.688C499.92 207.671 499.874 207.659 499.841 207.651C499.825 207.647 499.812 207.644 499.803 207.641C499.798 207.64 499.795 207.639 499.792 207.639C499.79 207.638 499.789 207.638 499.788 207.638C499.788 207.638 499.787 207.638 499.787 207.638C499.786 207.637 499.786 207.637 499.674 208.125ZM498.84 196.59C498.723 201.651 498.686 204.906 498.696 206.942C498.7 207.96 498.717 208.678 498.742 209.166C498.754 209.41 498.769 209.603 498.786 209.751C498.801 209.881 498.823 210.026 498.869 210.14C498.882 210.172 498.905 210.222 498.943 210.274C498.979 210.322 499.056 210.412 499.191 210.46C499.347 210.516 499.5 210.489 499.613 210.427C499.708 210.376 499.765 210.306 499.791 210.27C499.845 210.197 499.874 210.121 499.888 210.082C499.905 210.034 499.919 209.984 499.931 209.936C499.977 209.752 500.018 209.488 500.052 209.237C500.087 208.98 500.117 208.713 500.138 208.512C500.149 208.411 500.157 208.326 500.163 208.266C500.166 208.236 500.168 208.212 500.17 208.196C500.171 208.188 500.171 208.182 500.172 208.177C500.172 208.175 500.172 208.173 500.172 208.172C500.172 208.172 500.172 208.171 500.172 208.171C500.172 208.171 500.172 208.171 500.172 208.171C500.172 208.171 500.172 208.17 499.674 208.125C499.177 208.079 499.177 208.079 499.177 208.079C499.177 208.079 499.177 208.079 499.177 208.079C499.177 208.079 499.176 208.08 499.176 208.08C499.176 208.081 499.176 208.083 499.176 208.085C499.176 208.088 499.175 208.094 499.174 208.102C499.173 208.117 499.171 208.14 499.168 208.169C499.162 208.227 499.154 208.309 499.144 208.407C499.123 208.604 499.094 208.86 499.061 209.103C499.027 209.353 498.992 209.568 498.961 209.694C498.953 209.723 498.948 209.74 498.946 209.746C498.941 209.761 498.95 209.726 498.985 209.679C499.002 209.656 499.049 209.596 499.135 209.549C499.238 209.493 499.381 209.466 499.529 209.519C499.654 209.564 499.722 209.646 499.749 209.682C499.778 209.721 499.792 209.754 499.796 209.765C499.807 209.791 499.795 209.769 499.779 209.635C499.766 209.518 499.752 209.349 499.74 209.116C499.717 208.65 499.7 207.949 499.696 206.938C499.686 204.916 499.723 201.671 499.839 196.613L498.84 196.59ZM491.941 177.275C495.038 179.361 499.116 184.406 498.84 196.59L499.839 196.613C500.121 184.174 495.945 178.766 492.499 176.445L491.941 177.275ZM487.511 168.938C487.746 172.389 489.344 175.532 491.941 177.275L492.499 176.445C490.206 174.906 488.727 172.074 488.509 168.87L487.511 168.938ZM473.771 148.036C476.507 147.317 478.636 147.533 480.316 148.385C482.002 149.24 483.305 150.77 484.314 152.81C486.344 156.91 487.109 162.897 487.511 168.937L488.509 168.871C488.108 162.84 487.339 156.666 485.21 152.366C484.141 150.206 482.708 148.477 480.768 147.493C478.82 146.505 476.43 146.304 473.517 147.069L473.771 148.036ZM464.879 173.077C464.598 168.875 464.575 163.161 465.773 158.208C466.975 153.238 469.36 149.197 473.771 148.036L473.517 147.069C468.559 148.373 466.03 152.89 464.801 157.973C463.568 163.073 463.598 168.906 463.881 173.144L464.879 173.077ZM462.012 182.045C464.058 179.625 465.087 176.384 464.879 173.079L463.881 173.142C464.074 176.205 463.118 179.188 461.248 181.4L462.012 182.045ZM456.288 215.722C456.082 211.662 455.941 205.076 456.648 198.571C457.358 192.035 458.912 185.702 462.012 182.046L461.249 181.399C457.938 185.304 456.365 191.912 455.653 198.463C454.939 205.044 455.082 211.689 455.289 215.773L456.288 215.722ZM454.609 222.67C455.849 220.631 456.411 218.162 456.288 215.722L455.289 215.773C455.403 218.032 454.88 220.299 453.754 222.15L454.609 222.67ZM450.982 247.159C450.179 240.874 449.869 230.527 454.61 222.669L453.753 222.152C448.828 230.318 449.182 240.96 449.99 247.286L450.982 247.159ZM447.813 257.319C450.276 254.704 451.462 250.89 450.982 247.159L449.99 247.286C450.434 250.738 449.331 254.249 447.085 256.634L447.813 257.319ZM433.775 272.207L447.813 257.319L447.085 256.633L433.047 271.521L433.775 272.207ZM432.301 274.268C432.744 273.503 433.211 272.816 433.778 272.204L433.044 271.524C432.409 272.21 431.9 272.964 431.436 273.767L432.301 274.268ZM387.563 310.53C387.829 310.953 387.829 310.953 387.829 310.953C387.829 310.953 387.83 310.953 387.83 310.952C387.832 310.952 387.833 310.951 387.835 310.949C387.84 310.946 387.847 310.942 387.855 310.937C387.873 310.925 387.899 310.909 387.934 310.887C388.003 310.843 388.106 310.778 388.24 310.693C388.508 310.522 388.902 310.271 389.405 309.945C390.413 309.295 391.862 308.351 393.625 307.175C397.151 304.824 401.937 301.544 406.977 297.834C412.017 294.124 417.316 289.979 421.866 285.897C426.406 281.822 430.235 277.779 432.3 274.271L431.438 273.763C429.455 277.132 425.724 281.091 421.198 285.152C416.681 289.205 411.41 293.329 406.384 297.029C401.36 300.727 396.587 303.997 393.07 306.343C391.311 307.516 389.867 308.457 388.863 309.105C388.361 309.429 387.969 309.68 387.703 309.849C387.57 309.934 387.468 309.999 387.399 310.042C387.365 310.063 387.339 310.08 387.322 310.091C387.314 310.096 387.307 310.1 387.303 310.103C387.301 310.104 387.299 310.105 387.298 310.106C387.297 310.106 387.297 310.106 387.297 310.107C387.297 310.107 387.296 310.107 387.563 310.53ZM235.033 367.227C258.503 359.389 297.239 346.452 329.828 334.915C346.122 329.147 360.885 323.726 371.438 319.465C376.712 317.336 380.947 315.491 383.798 314.035C385.219 313.309 386.319 312.668 387.034 312.127C387.388 311.859 387.68 311.592 387.864 311.328C388.042 311.074 388.203 310.694 388.01 310.307L387.115 310.754C387.062 310.646 387.147 310.608 387.045 310.755C386.95 310.891 386.756 311.083 386.431 311.329C385.788 311.816 384.751 312.425 383.343 313.145C380.533 314.58 376.332 316.411 371.064 318.538C360.532 322.79 345.785 328.205 329.495 333.972C296.915 345.506 258.187 358.44 234.716 366.278L235.033 367.227ZM213.824 374.402C213.815 374.407 213.839 374.394 213.932 374.357C214.013 374.325 214.125 374.283 214.268 374.23C214.555 374.125 214.957 373.982 215.471 373.803C216.497 373.446 217.958 372.948 219.802 372.326C223.491 371.081 228.707 369.34 235.033 367.227L234.716 366.278C228.391 368.391 223.173 370.133 219.483 371.379C217.638 372.001 216.173 372.5 215.142 372.859C214.627 373.038 214.218 373.183 213.923 373.291C213.776 373.345 213.655 373.391 213.562 373.428C213.481 373.461 213.39 373.498 213.328 373.534L213.824 374.402ZM206.012 357.009C205.132 363.779 206.4 368.418 208.209 371.237C209.111 372.643 210.152 373.603 211.132 374.136C212.085 374.654 213.093 374.82 213.824 374.402L213.328 373.534C213.044 373.696 212.445 373.711 211.61 373.258C210.804 372.819 209.879 371.989 209.05 370.697C207.398 368.12 206.147 363.732 207.004 357.138L206.012 357.009ZM201.019 346.319C202.49 346.84 203.948 347.763 204.935 349.397C205.923 351.033 206.475 353.442 206.012 357.009L207.004 357.138C207.487 353.415 206.927 350.761 205.791 348.88C204.654 346.998 202.979 345.953 201.354 345.376L201.019 346.319ZM194.701 337.783C195.34 341.733 197.623 345.137 201.022 346.32L201.351 345.375C198.4 344.348 196.288 341.33 195.688 337.623L194.701 337.783ZM179.813 320.537C182.258 319.867 184.28 320.008 185.967 320.71C187.66 321.413 189.064 322.701 190.232 324.406C192.579 327.831 193.91 332.844 194.701 337.782L195.689 337.624C194.893 332.656 193.536 327.457 191.057 323.84C189.812 322.024 188.269 320.584 186.351 319.786C184.427 318.987 182.173 318.854 179.549 319.572L179.813 320.537ZM171.328 343.967C171.074 339.898 171.084 334.577 172.239 329.989C173.396 325.39 175.662 321.672 179.813 320.537L179.549 319.572C174.874 320.851 172.459 325.019 171.269 329.745C170.076 334.483 170.073 339.926 170.33 344.029L171.328 343.967ZM458.75 241.119C458.55 239.48 459.578 238.092 461.718 236.917C463.849 235.747 466.934 234.883 470.464 234.273C477.512 233.057 486.162 232.887 492.034 233.209L492.089 232.21C486.166 231.885 477.438 232.055 470.294 233.288C466.728 233.903 463.514 234.791 461.237 236.04C458.97 237.285 457.483 238.984 457.757 241.24L458.75 241.119ZM445.71 284.304C460.22 264.183 459.562 247.776 458.75 241.119L457.757 241.24C458.547 247.718 459.225 263.854 444.898 283.719L445.71 284.304ZM423.491 330.947C423.973 331.079 423.973 331.079 423.973 331.079C423.973 331.078 423.973 331.078 423.973 331.078C423.974 331.077 423.974 331.076 423.974 331.075C423.975 331.071 423.976 331.067 423.978 331.06C423.982 331.048 423.987 331.029 423.994 331.004C424.008 330.953 424.029 330.878 424.057 330.778C424.114 330.578 424.199 330.283 424.312 329.898C424.539 329.13 424.88 328.009 425.334 326.6C426.243 323.782 427.605 319.814 429.42 315.217C433.052 306.02 438.487 294.328 445.71 284.303L444.898 283.719C437.608 293.839 432.137 305.615 428.49 314.85C426.666 319.47 425.296 323.458 424.382 326.293C423.925 327.71 423.582 328.84 423.353 329.615C423.239 330.003 423.153 330.302 423.095 330.505C423.066 330.607 423.045 330.684 423.03 330.736C423.023 330.762 423.018 330.782 423.014 330.795C423.012 330.802 423.011 330.807 423.01 330.81C423.009 330.812 423.009 330.813 423.009 330.814C423.009 330.815 423.008 330.815 423.008 330.815C423.008 330.816 423.008 330.816 423.491 330.947ZM443.343 415.275L423.978 330.836L423.003 331.059L442.368 415.499L443.343 415.275ZM522.065 443.888C519.861 444.244 516.972 444.079 513.576 443.492C510.188 442.906 506.328 441.907 502.195 440.621C493.93 438.049 484.608 434.34 475.847 430.534C467.087 426.729 458.896 422.831 452.895 419.884C449.895 418.411 447.442 417.175 445.74 416.309C444.889 415.875 444.225 415.534 443.775 415.301C443.55 415.184 443.378 415.095 443.262 415.035C443.204 415.005 443.16 414.982 443.131 414.967C443.117 414.959 443.106 414.953 443.098 414.95C443.095 414.948 443.092 414.946 443.09 414.945C443.089 414.945 443.089 414.945 443.088 414.944C443.088 414.944 443.088 414.944 442.856 415.387C442.624 415.83 442.624 415.83 442.624 415.83C442.625 415.831 442.626 415.831 442.627 415.831C442.628 415.832 442.631 415.834 442.635 415.836C442.643 415.84 442.654 415.846 442.668 415.853C442.698 415.869 442.742 415.892 442.8 415.922C442.917 415.983 443.09 416.072 443.316 416.189C443.768 416.423 444.433 416.765 445.286 417.2C446.992 418.068 449.449 419.306 452.454 420.782C458.465 423.733 466.67 427.638 475.448 431.452C484.225 435.264 493.584 438.989 501.898 441.576C506.055 442.869 509.96 443.881 513.406 444.477C516.845 445.071 519.86 445.257 522.225 444.875L522.065 443.888ZM537.049 420.503C536.555 420.583 536.555 420.583 536.555 420.582C536.555 420.583 536.555 420.583 536.555 420.583C536.555 420.583 536.556 420.584 536.556 420.585C536.556 420.587 536.557 420.59 536.557 420.594C536.559 420.603 536.561 420.617 536.563 420.636C536.569 420.673 536.577 420.73 536.587 420.804C536.606 420.953 536.633 421.173 536.661 421.456C536.716 422.023 536.775 422.838 536.79 423.826C536.82 425.805 536.672 428.465 535.965 431.209C535.259 433.952 533.999 436.76 531.82 439.059C529.646 441.351 526.532 443.165 522.065 443.888L522.225 444.875C526.894 444.119 530.212 442.208 532.546 439.747C534.874 437.291 536.198 434.314 536.934 431.458C537.669 428.602 537.821 425.847 537.79 423.811C537.775 422.791 537.713 421.949 537.656 421.359C537.627 421.064 537.599 420.833 537.578 420.674C537.568 420.594 537.559 420.533 537.553 420.491C537.55 420.47 537.547 420.453 537.546 420.442C537.545 420.437 537.544 420.432 537.544 420.429C537.543 420.428 537.543 420.426 537.543 420.425C537.543 420.425 537.543 420.425 537.543 420.424C537.543 420.424 537.543 420.424 537.049 420.503ZM544.135 366.247C533.116 374.63 531.277 388.321 532.136 399.781C532.567 405.524 533.678 410.746 534.679 414.529C535.181 416.422 535.655 417.957 536.005 419.02C536.179 419.552 536.323 419.965 536.423 420.247C536.474 420.388 536.513 420.495 536.54 420.568C536.553 420.605 536.564 420.633 536.571 420.651C536.574 420.661 536.577 420.668 536.579 420.673C536.58 420.675 536.58 420.677 536.581 420.679C536.581 420.679 536.581 420.68 536.581 420.68C536.582 420.681 536.582 420.681 537.049 420.503C537.516 420.325 537.516 420.325 537.516 420.325C537.516 420.325 537.516 420.325 537.516 420.324C537.516 420.323 537.515 420.322 537.514 420.32C537.513 420.316 537.51 420.309 537.507 420.301C537.501 420.283 537.491 420.257 537.478 420.222C537.452 420.153 537.414 420.049 537.366 419.911C537.268 419.637 537.127 419.231 536.955 418.707C536.61 417.661 536.142 416.145 535.646 414.273C534.655 410.529 533.558 405.371 533.133 399.706C532.282 388.35 534.136 375.111 544.741 367.043L544.135 366.247ZM607.741 355.107C596.122 353.231 581.97 354.691 569.881 357.266C563.832 358.554 558.286 360.125 553.815 361.706C549.361 363.281 545.925 364.882 544.135 366.247L544.741 367.042C546.398 365.779 549.705 364.22 554.148 362.649C558.574 361.084 564.078 359.524 570.09 358.244C582.124 355.68 596.137 354.247 607.581 356.094L607.741 355.107ZM633.731 346.053C623.848 352.193 616.769 356.566 607.741 355.107L607.581 356.094C617.044 357.623 624.453 352.995 634.259 346.903L633.731 346.053ZM636.746 344.188C635.712 344.823 634.708 345.446 633.731 346.053L634.259 346.903C635.236 346.296 636.238 345.673 637.269 345.04L636.746 344.188ZM656.427 340.952C654.306 340.042 652.149 339.11 649.116 339.304C646.098 339.497 642.271 340.799 636.746 344.187L637.269 345.04C642.73 341.69 646.394 340.48 649.18 340.302C651.952 340.124 653.912 340.961 656.033 341.871L656.427 340.952ZM673.071 340.171C668.472 342.207 665.235 342.782 662.707 342.671C660.18 342.56 658.317 341.764 656.427 340.952L656.033 341.871C657.922 342.682 659.935 343.55 662.663 343.67C665.39 343.79 668.785 343.162 673.476 341.086L673.071 340.171ZM683.307 330.45C682.917 332.092 682.579 333.496 681.27 334.998C679.944 336.518 677.589 338.175 673.071 340.171L673.475 341.086C678.041 339.069 680.555 337.34 682.023 335.655C683.508 333.951 683.888 332.33 684.28 330.681L683.307 330.45ZM683.381 330.139C683.356 330.243 683.331 330.347 683.307 330.45L684.28 330.681C684.304 330.578 684.329 330.475 684.353 330.372L683.381 330.139ZM674.734 323.479C675.197 323.364 676.013 323.482 677.044 323.867C678.048 324.241 679.167 324.833 680.188 325.547C681.213 326.264 682.115 327.087 682.707 327.912C683.307 328.747 683.535 329.506 683.381 330.137L684.353 330.373C684.607 329.329 684.192 328.266 683.52 327.329C682.841 326.383 681.843 325.485 680.762 324.728C679.678 323.97 678.484 323.336 677.394 322.929C676.33 322.533 675.268 322.316 674.493 322.508L674.734 323.479ZM630.688 334.272L674.732 323.479L674.494 322.508L630.45 333.301L630.688 334.272ZM503.68 338.979C510.224 341.462 521.453 342.386 534.536 342.402C547.645 342.418 562.694 341.52 576.927 340.317C591.162 339.114 604.59 337.605 614.458 336.397C619.392 335.793 623.437 335.264 626.249 334.886C627.654 334.697 628.752 334.546 629.498 334.442C629.871 334.39 630.157 334.35 630.349 334.323C630.445 334.309 630.517 334.299 630.566 334.292C630.591 334.288 630.609 334.286 630.621 334.284C630.628 334.283 630.632 334.282 630.635 334.282C630.637 334.282 630.638 334.282 630.639 334.281C630.64 334.281 630.64 334.281 630.569 333.786C630.498 333.291 630.497 333.292 630.497 333.292C630.496 333.292 630.495 333.292 630.493 333.292C630.49 333.293 630.486 333.293 630.48 333.294C630.467 333.296 630.449 333.298 630.425 333.302C630.376 333.309 630.304 333.319 630.208 333.333C630.017 333.36 629.732 333.4 629.36 333.452C628.615 333.556 627.52 333.707 626.115 333.895C623.307 334.273 619.266 334.801 614.336 335.405C604.476 336.612 591.062 338.119 576.843 339.321C562.622 340.523 547.605 341.418 534.537 341.402C521.445 341.386 510.387 340.455 504.035 338.044L503.68 338.979ZM502.823 338.654C503.105 338.761 503.39 338.869 503.68 338.979L504.035 338.044C503.745 337.934 503.459 337.826 503.177 337.719L502.823 338.654ZM479.014 322.36C482.842 327.428 486.104 330.491 489.775 332.797C493.433 335.095 497.479 336.627 502.823 338.654L503.177 337.719C497.81 335.683 493.864 334.185 490.307 331.95C486.764 329.725 483.588 326.756 479.812 321.757L479.014 322.36ZM470.81 287.49C469.894 292.141 470.004 298.278 471.305 304.529C472.607 310.782 475.11 317.187 479.014 322.36L479.812 321.757C476.018 316.73 473.564 310.472 472.284 304.325C471.004 298.176 470.906 292.177 471.791 287.684L470.81 287.49ZM473.03 271.709C472.586 275.986 472.046 281.192 470.81 287.491L471.791 287.683C473.036 281.337 473.58 276.091 474.024 271.812L473.03 271.709ZM481.77 255.096C480.002 255.538 478.611 256.188 477.512 257.091C476.41 257.995 475.629 259.132 475.049 260.505C473.905 263.215 473.526 266.921 473.03 271.709L474.024 271.812C474.527 266.961 474.898 263.434 475.971 260.894C476.499 259.641 477.192 258.647 478.146 257.863C479.103 257.078 480.348 256.482 482.012 256.067L481.77 255.096ZM492.034 233.209C495.363 233.392 497.825 233.843 499.577 234.482C501.331 235.121 502.321 235.928 502.791 236.788C503.255 237.635 503.265 238.626 502.859 239.755C502.45 240.893 501.63 242.134 500.496 243.413C498.232 245.969 494.809 248.58 491.304 250.714C487.796 252.85 484.255 254.477 481.77 255.096L482.012 256.067C484.636 255.413 488.275 253.729 491.824 251.568C495.376 249.406 498.89 246.735 501.245 244.076C502.421 242.748 503.331 241.398 503.8 240.093C504.272 238.78 504.308 237.476 503.669 236.308C503.037 235.154 501.796 234.226 499.919 233.542C498.04 232.857 495.469 232.396 492.089 232.21L492.034 233.209Z" fill="#B42025"/>
<path d="M11.587 357.193L171.107 348.883C171.107 348.883 168.709 339.101 169.716 330.95C169.809 330.173 169.287 329.559 168.758 329.872C166.875 330.965 145.317 305.308 137.006 302.046C134.557 301.09 131.846 301.641 129.875 303.673C124.008 309.713 110.437 319 95.154 325.021C78.335 331.643 27.9322 350.506 11.4792 356.639" fill="#B42025"/>
<path d="M11.587 357.193L171.107 348.883C171.107 348.883 168.709 339.101 169.716 330.95C169.809 330.173 169.287 329.559 168.758 329.872C166.875 330.965 145.317 305.308 137.006 302.046C134.557 301.09 131.846 301.641 129.875 303.673C124.008 309.713 110.437 319 95.154 325.021C78.335 331.643 27.9322 350.506 11.4792 356.639" stroke="#B42025" stroke-miterlimit="10"/>
</g>
<defs>
<clipPath id="clip0_705_262">
<rect width="778.47" height="473.734" fill="white" transform="translate(44.3945) rotate(5.37717)"/>
</clipPath>
</defs>
</svg>
