<svg width="883" height="228" viewBox="0 0 883 228" fill="none" xmlns="http://www.w3.org/2000/svg">
<path d="M689.816 224.816V1.91061H777.744C793.789 1.91061 808.23 4.56424 821.066 9.87151C834.116 15.1788 845.24 22.8212 854.44 32.7989C863.639 42.7765 870.699 54.5587 875.619 68.1453C880.54 81.7318 883 96.8045 883 113.363C883 129.922 880.54 145.101 875.619 158.899C870.699 172.486 863.639 184.268 854.44 194.246C845.454 204.011 834.437 211.547 821.387 216.855C808.336 222.162 793.789 224.816 777.744 224.816H689.816ZM724.474 195.201L723.511 191.698H776.139C787.478 191.698 797.533 189.894 806.304 186.285C815.289 182.676 822.777 177.581 828.767 171C834.971 164.207 839.678 155.927 842.887 146.162C846.096 136.397 847.701 125.464 847.701 113.363C847.701 101.263 846.096 90.4358 842.887 80.8827C839.678 71.1173 834.971 62.838 828.767 56.0447C822.563 49.2514 815.076 44.0503 806.304 40.4413C797.533 36.8324 787.478 35.0279 776.139 35.0279H722.548L724.474 32.162V195.201Z" fill="black"/>
<path fill-rule="evenodd" clip-rule="evenodd" d="M321.131 226.726C338.46 226.726 353.97 223.011 367.662 215.581C381.354 207.939 392.051 197.536 399.752 184.374C407.668 171 411.626 155.927 411.626 139.156V1.59218H378.573V136.29C378.573 147.117 376.006 156.883 370.871 165.587C365.737 174.078 358.784 180.872 350.013 185.967C341.455 191.061 331.828 193.609 321.131 193.609V226.726Z" fill="black"/>
<path fill-rule="evenodd" clip-rule="evenodd" d="M528.66 1.91061L485.178 113.363L441.696 224.816H476.995L498.234 169.408H592.208L613.379 224.816H650.282L563.96 1.91061H528.66ZM579.555 136.29L562.034 90.4358C561.392 88.9497 560.109 85.3408 558.183 79.6089C556.472 73.8771 554.439 67.5084 552.086 60.5028L545.668 41.3966C545.568 41.0858 545.469 40.7808 545.371 40.4816C545.052 41.3939 544.723 42.3358 544.385 43.3073C542.673 48.8268 540.748 54.6648 538.608 60.8212C536.683 66.9777 534.757 72.8156 532.832 78.3352C530.907 83.6425 529.302 88.1006 528.018 91.7095L510.929 136.29H493.04L480.204 169.408H498.234L510.929 136.29H579.555Z" fill="black"/>
<path d="M493.04 136.29L480.204 169.408H498.234L510.929 136.29H493.04Z" fill="black"/>
<path d="M107.182 228C91.5644 228 77.2307 225.24 64.1806 219.721C51.1306 214.201 39.792 206.346 30.1649 196.156C20.5378 185.754 13.0501 173.547 7.70168 159.536C2.56722 145.525 0 130.134 0 113.363C0 97.4413 2.78116 82.6872 8.34348 69.1006C14.1197 55.3017 22.0353 43.2011 32.0903 32.7989C42.1453 22.3966 53.8048 14.3296 67.0687 8.59777C80.3327 2.86592 94.6664 0 110.07 0C120.98 0 131.57 1.69832 141.839 5.09496C152.322 8.27933 161.735 12.8436 170.079 18.7877C178.636 24.5196 185.589 31.1006 190.937 38.5307L167.832 62.4134C161.628 56.257 155.317 51.162 148.899 47.1285C142.695 42.8827 136.277 39.6983 129.645 37.5754C123.227 35.4525 116.702 34.3911 110.07 34.3911C99.5869 34.3911 89.7459 36.4078 80.5467 40.4413C71.5614 44.2626 63.6458 49.676 56.7999 56.6816C50.1679 63.6872 44.9264 72.0726 41.0756 81.838C37.2248 91.3911 35.2993 101.899 35.2993 113.363C35.2993 125.464 37.1178 136.503 40.7547 146.48C44.6055 156.246 49.9539 164.631 56.7999 171.637C63.6458 178.642 71.7753 184.056 81.1885 187.877C90.8156 191.486 101.405 193.291 112.958 193.291C120.018 193.291 126.971 192.335 133.817 190.425C140.663 188.514 147.081 185.754 153.071 182.145C159.061 178.536 164.516 174.291 169.437 169.408L186.766 197.43C181.845 203.162 175.106 208.363 166.549 213.034C158.205 217.704 148.792 221.419 138.309 224.179C128.04 226.726 117.664 228 107.182 228Z" fill="#B42025"/>
<path d="M274.6 215.581C288.292 223.011 303.802 226.726 321.131 226.726V193.609C311.076 193.609 301.77 191.061 293.213 185.967C284.869 180.872 278.13 174.078 272.996 165.587C267.861 156.883 265.294 147.117 265.294 136.29V1.59218H230.637V139.156C230.637 155.927 234.487 171 242.189 184.374C250.105 197.536 260.908 207.939 274.6 215.581Z" fill="black"/>
</svg>
